<?xml version="1.0" encoding="UTF-8"?>
<svg width="139px" height="36px" viewBox="0 0 139 36" version="1.1" xmlns="http://www.w3.org/2000/svg" xmlns:xlink="http://www.w3.org/1999/xlink">
    <!-- Generator: sketchtool 49.3 (51167) - http://www.bohemiancoding.com/sketch -->
    <title>CE4D9739-1060-4A4E-B567-5B4188824342</title>
    <desc>Created with sketchtool.</desc>
    <defs></defs>
    <g id="Page-1" stroke="none" stroke-width="1" fill="none" fill-rule="evenodd">
        <g id="MaisonBrasson_Landing-3" transform="translate(-730.000000, -39.000000)" fill="#000000">
            <path d="M836.981877,72.1060421 C832.841072,72.131605 829.798122,69.0489715 829.755447,64.7954737 C829.7157,60.5939398 832.780824,57.4543136 836.938364,57.4283317 C841.079169,57.4052832 844.143457,60.509708 844.164794,64.7468623 C844.182785,68.9689304 841.143183,72.085508 836.981877,72.1060421 Z M836.990663,54.5380485 C831.303071,54.4839893 826.830483,58.7508971 826.764377,64.6898696 C826.706639,70.4771411 831.010198,74.9527427 836.854268,74.9921347 C842.598343,75.0298505 847.080554,70.8161637 847.119882,64.8009216 C847.132016,59.0936913 842.956903,54.587079 836.990663,54.5380485 Z M820.742492,64.3265413 C819.05638,63.7511667 817.322991,63.3023493 815.61345,62.7835483 C814.86495,62.5543204 814.088419,62.3540079 813.401841,62.000318 C812.138303,61.3650173 811.833297,59.8115477 812.699783,58.7353918 C813.135745,58.1989901 813.721072,57.8809206 814.375434,57.6940182 C816.466547,57.0989475 818.52628,57.3675674 820.554634,57.9798197 C821.351667,58.2279055 822.123178,58.5954244 822.938202,58.9218752 C823.148233,58.2777741 823.372072,57.5993097 823.575828,56.9166548 C823.833974,56.0856512 823.833974,56.077689 822.998031,55.749562 C820.562584,54.7756577 818.040948,54.3825758 815.421409,54.6478432 C814.072102,54.7819436 812.7889,55.1100706 811.639164,55.8404989 C809.484456,57.1923988 808.720476,59.3975126 809.274425,61.7065543 C809.68612,63.4465073 810.931249,64.5260157 812.569245,65.059903 C814.267908,65.6072004 816.018451,66.0027966 817.741381,66.4755006 C818.686105,66.7361583 819.638779,67.0068735 820.385187,67.6953954 C820.715715,68.001312 820.94039,68.3730216 820.990178,68.8344109 C821.128247,70.0149137 820.598147,70.8454982 819.619951,71.4233872 C818.602427,72.0322869 817.465244,72.1978171 816.311324,72.1806355 C814.431917,72.1533964 812.652505,71.6861402 810.9802,70.824964 C810.706155,70.6883492 810.434201,70.5475438 810.143002,70.3970999 C809.934225,71.2377419 809.764778,72.046116 809.521275,72.8318607 C809.406217,73.1993797 809.521275,73.3426995 809.827118,73.4851812 C811.490218,74.2805643 813.242853,74.738182 815.078748,74.9322086 C816.666537,75.0977388 818.232571,74.9674099 819.745468,74.4607618 C821.757924,73.7890025 823.342366,72.6135284 823.947777,70.4607976 C824.347757,69.0301137 824.297969,67.6124208 823.44027,66.3267329 C822.785489,65.3469617 821.830724,64.6932222 820.742492,64.3265413 Z M753.052028,64.9563942 C752.971279,64.9563942 752.891366,64.9425651 752.779656,64.9337648 L752.779656,57.5125635 C752.894713,57.5016679 753.002658,57.4861625 753.099724,57.4861625 C754.954447,57.4836481 756.812935,57.4723334 758.665983,57.489515 C759.813627,57.4995725 760.872153,57.797946 761.675043,58.671275 C763.585412,60.733069 762.475423,64.1978887 759.716142,64.8256463 C759.371807,64.9040113 759.008645,64.9475939 758.653432,64.9475939 C756.785739,64.9622611 754.920139,64.9563942 753.052028,64.9563942 Z M768.722821,73.2848687 C768.654205,72.794564 768.582661,72.3071928 768.512371,71.875138 C767.822446,72.0234866 767.194861,72.20997 766.545102,72.2950399 C765.319638,72.4513507 764.248141,71.9593698 763.359063,71.1761395 C762.25284,70.1963683 761.231132,69.1151836 760.176371,68.0750672 C759.977636,67.8852313 759.804422,67.6790519 759.549204,67.4028888 C759.757563,67.3727162 759.860487,67.351344 759.960063,67.3417055 C761.542414,67.1581556 762.929376,66.5559609 764.054008,65.4106594 C765.36064,64.0809699 765.849319,62.4570976 765.719619,60.6220171 C765.575274,58.4257036 764.578251,56.7808781 762.61391,55.7566861 C761.223182,55.0367344 759.716142,54.8213356 758.172702,54.8188213 C755.502537,54.8112781 752.831118,54.8213356 750.16723,54.8091828 C749.824568,54.804154 749.715368,54.895929 749.71746,55.2462664 C749.733778,57.1031382 749.731686,69.8087343 749.71746,74.3019366 C749.71746,74.6162345 749.804067,74.7147145 750.123717,74.7071713 C750.860502,74.6857991 751.605654,74.6849609 752.348714,74.7071713 C752.681334,74.718486 752.761247,74.6032435 752.761247,74.2767928 C752.749114,72.1437579 752.757063,70.0098849 752.757063,67.87685 C752.757063,67.3957648 752.757063,67.3957648 753.221476,67.3957648 C753.947801,67.3915741 754.676636,67.3769069 755.404634,67.4054032 C755.621779,67.4146226 755.887875,67.5030451 756.036403,67.6501365 C756.649344,68.2364068 757.250152,68.8436303 757.812886,69.4730641 C759.041279,70.8488507 760.23369,72.2590004 761.689269,73.4043019 C763.682897,74.9879441 765.856014,75.4380186 768.258408,74.4796197 C768.827837,74.2545824 768.827837,74.2604493 768.75169,73.6465208 C768.740812,73.5245732 768.740812,73.4043019 768.722821,73.2848687 Z M775.200752,67.9728156 C776.620349,64.606895 778.017353,61.2937764 779.414775,57.9840103 C779.444481,57.9840103 779.477115,57.9798197 779.511841,57.9798197 C780.824749,61.2996433 782.134728,64.6177907 783.463952,67.9728156 L775.200752,67.9728156 Z M785.358422,65.3339707 C784.008696,61.928239 782.667756,58.5216692 781.330582,55.1083944 C781.241047,54.882519 781.125571,54.804154 780.883323,54.8112781 C779.926884,54.8230119 778.9717,54.8230119 778.011914,54.8112781 C777.782636,54.804154 777.683478,54.895929 777.592687,55.0979178 C776.513659,57.7237717 775.432122,60.3462731 774.342216,62.9700317 C772.95358,66.3472671 771.560341,69.7211499 770.165011,73.0988043 C769.954561,73.608805 769.750387,74.1242535 769.535753,74.6614934 C769.651228,74.6824465 769.711058,74.69879 769.768796,74.69879 C770.627332,74.7004663 771.490052,74.7088476 772.349006,74.6899897 C772.471595,74.6857991 772.649829,74.5458317 772.699617,74.4297511 C773.221768,73.1872268 773.727183,71.9367404 774.2372,70.6883492 C774.332174,70.4691788 774.433425,70.3137062 774.723369,70.3137062 C777.799372,70.3250209 780.876211,70.3225065 783.947193,70.3162206 C784.166429,70.3162206 784.290691,70.3740514 784.374787,70.5990886 C784.780625,71.6559676 785.222445,72.7019509 785.63163,73.7592489 C785.994793,74.6941803 785.981823,74.7004663 786.9596,74.7004663 C787.525263,74.7004663 788.091344,74.7004663 788.652405,74.69879 C788.768299,74.69879 788.881683,74.6899897 789.040671,74.6778368 C789.003016,74.554213 788.989209,74.4854865 788.964106,74.4213698 C787.759143,71.3915383 786.557527,68.3629641 785.358422,65.3339707 Z M785.275162,44.8249872 L786.830736,41.36352 L788.372502,44.8249872 L785.275162,44.8249872 Z M787.51564,39.0909368 L786.165914,39.0909368 L781.802526,48.7474246 L783.530895,48.7474246 L784.591513,46.3826474 L789.052804,46.3826474 L790.096687,48.7474246 L791.884886,48.7474246 L787.51564,39.0909368 Z M803.233711,64.5163772 C801.591949,63.7142891 799.790363,63.4104678 798.057392,62.8891524 C797.170405,62.6222087 796.271704,62.3602938 795.430322,61.993613 C794.774286,61.7170309 794.358407,61.1571616 794.291046,60.4108089 C794.18352,59.2085148 794.798553,58.2941176 796.02067,57.8285376 C797.556161,57.2439436 799.141021,57.2850119 800.719188,57.535193 C802.188992,57.7686115 803.598966,58.2065332 804.958733,59.0006592 C805.189266,58.2777741 805.40892,57.5993097 805.612258,56.9133022 C805.85869,56.0818796 805.850322,56.0743365 805.035298,55.7445332 C802.595248,54.7731433 800.073613,54.3825758 797.451981,54.6478432 C796.104766,54.7819436 794.829514,55.1209663 793.665971,55.8404989 C791.378634,57.2560965 790.491647,60.0793294 791.603728,62.5149284 C792.204954,63.8211503 793.287329,64.640001 794.610696,65.0619983 C796.177147,65.5615224 797.778326,65.9403561 799.365697,66.3678012 C800.267327,66.6075057 801.171049,66.8350574 801.970174,67.3442199 C802.523285,67.6953954 802.945859,68.1454699 803.027027,68.8377634 C803.15882,70.0191043 802.62872,70.8454982 801.656381,71.4275778 C800.735924,71.9799039 799.707521,72.1559107 798.664057,72.1756067 C796.686746,72.2141606 794.81487,71.730561 793.044244,70.8438219 C792.765178,70.7046927 792.489041,70.5525726 792.179014,70.3929092 C791.9694,71.2335513 791.812504,72.0322869 791.562307,72.8033644 C791.443066,73.2060847 791.562307,73.3548523 791.901203,73.5040391 C794.594797,74.7147145 797.378763,75.3064326 800.335525,74.816966 C801.823737,74.5663659 803.173045,74.028707 804.345373,73.0531264 C805.955338,71.7137984 806.656977,69.1315271 805.930234,67.2076051 C805.439045,65.9009641 804.436582,65.1064191 803.233711,64.5163772 Z M813.034076,40.5698131 C814.864532,40.5698131 816.2448,42.0235455 816.2448,43.95082 L816.2448,43.9788973 C816.2448,45.8923427 814.874992,47.3355985 813.058343,47.3355985 C811.227469,47.3355985 809.8472,45.8806089 809.8472,43.9248381 C809.8472,42.0118117 811.217009,40.5698131 813.034076,40.5698131 Z M813.034076,48.9020591 C815.77453,48.9020591 817.921707,46.7271179 817.921707,43.9248381 C817.921707,41.1175295 815.831013,39 813.058343,39 C810.314124,39 808.164018,41.1745222 808.164018,43.95082 L808.164018,43.9788973 C808.164018,46.7853677 810.257641,48.9020591 813.034076,48.9020591 Z M802.531235,47.3355985 C801.436727,47.3355985 800.60957,46.9911281 799.676979,46.1479717 L799.434313,45.9283822 L798.394196,47.1554011 L798.62431,47.3619996 C799.764422,48.3820009 801.029215,48.8773343 802.492325,48.8773343 C804.475493,48.8773343 805.859945,47.7039556 805.859945,45.9987849 C805.859945,44.0924636 804.171323,43.4785351 802.699427,43.1558559 C800.679023,42.7212868 800.522963,42.289232 800.522963,41.698352 C800.522963,41.0341358 801.174396,40.5698131 802.106987,40.5698131 C802.980167,40.5698131 803.736616,40.8564527 804.487626,41.4712194 L804.742844,41.6803322 L805.712671,40.3925491 L805.474189,40.1993607 C804.475074,39.3888912 803.443743,39.0268201 802.130836,39.0268201 C800.246826,39.0268201 798.879528,40.1880459 798.879528,41.8148517 C798.879528,43.7387737 800.443888,44.3426447 802.135856,44.7093255 C804.057939,45.1162365 804.210652,45.5621204 804.210652,46.1265994 C804.210652,46.8494845 803.535789,47.3355985 802.531235,47.3355985 Z M794.202766,48.7474246 L795.846201,48.7474246 L795.846201,39.1537964 L794.202766,39.1537964 L794.202766,48.7474246 Z M822.318148,41.9996589 L827.619566,48.7474246 L828.900258,48.7474246 L828.900258,39.1537964 L827.278997,39.1537964 L827.278997,45.7343557 L822.113555,39.1537964 L820.694795,39.1537964 L820.694795,48.7474246 L822.318148,48.7474246 L822.318148,41.9996589 Z M743.030335,68.8779935 C743.030335,70.7465991 741.561368,71.816469 738.989525,71.816469 L733.000692,71.816469 L733.000692,65.9386798 L738.735981,65.9386798 C742.473039,65.9386798 743.030335,67.7427496 743.030335,68.8189055 L743.030335,68.8779935 Z M733.000692,57.7074282 L738.228056,57.7074282 C740.541752,57.7074282 741.926622,58.730363 741.926622,60.4485247 L741.926622,60.5017458 C741.926622,62.3540079 740.489871,63.412144 737.976185,63.412144 L733.000692,63.412144 L733.000692,57.7074282 Z M742.299826,64.5679221 L741.827045,64.4040681 L742.268865,64.1740021 C744.101831,63.2239844 744.986726,61.8373022 744.986726,59.9351715 L744.986726,59.8777597 C744.986726,58.6205683 744.572102,57.5934428 743.715657,56.7381336 C742.605669,55.6276144 740.867259,55.0421823 738.679917,55.0421823 L730,55.0421823 L730,74.4838103 L738.96484,74.4838103 C743.430734,74.4838103 746.097133,72.5234297 746.097133,69.2455125 L746.097133,69.1872626 C746.097133,66.8891166 744.923131,65.4630424 742.299826,64.5679221 Z M866.453261,54.817145 C865.982572,54.817145 865.982572,54.817145 865.982572,55.2823058 L865.982572,69.7701804 C865.949519,69.7789807 865.914375,69.7915526 865.875046,69.8011911 C865.811032,69.7169593 865.747437,69.6344037 865.679658,69.5514291 C863.404872,66.8187139 861.130505,64.0855796 858.858647,61.3578932 C857.125258,59.2696981 855.379317,57.1844365 853.647183,55.0899555 C853.475643,54.889224 853.296154,54.8024778 853.030058,54.8112781 C852.445986,54.8255263 851.861913,54.817145 851.271565,54.817145 C850.76615,54.817145 850.76615,54.817145 850.76615,55.3212788 L850.76615,74.1938181 C850.76615,74.2684115 850.770334,74.3430048 850.76615,74.4108932 C850.738118,74.6342542 850.842716,74.7071713 851.057768,74.7029807 C851.752714,74.6941803 852.445986,74.7004663 853.139258,74.7004663 L853.814539,74.7004663 L853.814539,59.7168392 C854.470993,60.4975551 855.05632,61.1848198 855.638719,61.8825611 C859.138969,66.0690087 862.639218,70.2546182 866.135703,74.4444183 C866.285486,74.6237776 866.432341,74.7130382 866.680028,74.7071713 C867.330206,74.6899897 867.971598,74.7004663 868.615918,74.69879 C868.743527,74.69879 868.867789,74.6857991 869,74.6778368 L869,54.817145 L866.453261,54.817145 Z M771.993375,42.2158958 L774.766882,46.2917105 L775.153892,46.2917105 L777.932001,42.204162 L777.932001,48.7474246 L779.571253,48.7474246 L779.571253,39.1537964 L778.060865,39.1537964 L774.973985,43.7898995 L771.884594,39.1537964 L770.374625,39.1537964 L770.374625,48.7474246 L771.993375,48.7474246 L771.993375,42.2158958 Z" id="Logo"></path>
        </g>
    </g>
</svg>